<?xml version="1.0" encoding="UTF-8" standalone="no"?>
<!-- Created with Inkscape (http://www.inkscape.org/) -->

<svg
   version="1.1"
   id="svg1251"
   xml:space="preserve"
   width="682.66669"
   height="682.66669"
   viewBox="0 0 682.66669 682.66669"
   xmlns="http://www.w3.org/2000/svg"
   xmlns:svg="http://www.w3.org/2000/svg"><defs
     id="defs1255"><clipPath
       clipPathUnits="userSpaceOnUse"
       id="clipPath1265"><path
         d="M 0,512 H 512 V 0 H 0 Z"
         id="path1263" /></clipPath></defs><g
     id="g1257"
     transform="matrix(1.3333333,0,0,-1.3333333,0,682.66667)"><g
       id="g1259"><g
         id="g1261"
         clip-path="url(#clipPath1265)"><g
           id="g1267"
           transform="translate(256,400.6001)"><path
             d="m 0,0 60.259,60.259 c 11.087,11.087 29.062,11.087 40.149,0 0.005,-0.006 0.012,-0.012 0.018,-0.018 5.323,-5.324 8.315,-12.545 8.315,-20.074 0,-7.53 -2.992,-14.751 -8.315,-20.075 -16.021,-16.02 -35.794,-35.793 -35.794,-35.793 0,0 9.835,9.834 19.726,19.726 5.325,5.324 12.545,8.316 20.076,8.316 7.529,0 14.751,-2.992 20.074,-8.316 0.006,-0.005 0.012,-0.012 0.017,-0.017 5.325,-5.324 8.316,-12.545 8.316,-20.075 0,-7.529 -2.991,-14.75 -8.316,-20.074 C 111.295,-49.372 96.4,-64.267 96.4,-64.267 c 0,0 5.562,5.562 12.059,12.059 5.323,5.324 12.545,8.315 20.074,8.315 7.53,0 14.751,-2.991 20.074,-8.315 0.006,-0.005 0.013,-0.012 0.019,-0.018 5.323,-5.323 8.314,-12.545 8.314,-20.074 0,-7.53 -2.991,-14.751 -8.314,-20.075 -13.23,-13.229 -28.126,-28.125 -28.126,-28.125 0,0 5.563,5.562 12.059,12.059 5.324,5.323 12.545,8.315 20.075,8.315 7.529,0 14.75,-2.992 20.074,-8.315 0.006,-0.006 0.012,-0.012 0.018,-0.018 11.086,-11.087 11.086,-29.062 0,-40.149 -26.713,-26.712 -73.821,-73.82 -101.806,-101.806 -14.548,-14.547 -34.277,-22.719 -54.851,-22.719 h -32.135 l -96.401,-96.4"
             style="fill:none;stroke:#000000;stroke-width:30;stroke-linecap:round;stroke-linejoin:round;stroke-miterlimit:10;stroke-dasharray:none;stroke-opacity:1"
             id="path1269" /></g><g
           id="g1271"
           transform="translate(91.3252,243.9409)"><path
             d="m 0,0 c 5.324,-5.323 12.545,-8.315 20.075,-8.315 7.529,0 14.75,2.992 20.074,8.315 0.006,0.006 0.012,0.012 0.018,0.018 5.323,5.324 8.315,12.545 8.315,20.074 0,7.53 -2.992,14.751 -8.315,20.075 l -8.051,8.051 c -5.324,5.324 -12.545,8.315 -20.075,8.315 -7.529,0 -14.75,-2.991 -20.074,-8.315 -0.006,-0.006 -0.012,-0.012 -0.018,-0.018 -5.323,-5.324 -8.315,-12.545 -8.315,-20.074 0,-7.53 2.992,-14.751 8.315,-20.075 C -5.39,5.39 -2.661,2.662 0,0 Z"
             style="fill:none;stroke:#000000;stroke-width:30;stroke-linecap:round;stroke-linejoin:round;stroke-miterlimit:10;stroke-dasharray:none;stroke-opacity:1"
             id="path1273" /></g><g
           id="g1275"
           transform="translate(131.4922,284.1079)"><path
             d="m 0,0 c 5.323,-5.324 12.545,-8.315 20.074,-8.315 7.53,0 14.751,2.991 20.075,8.315 0.005,0.005 0.012,0.012 0.018,0.018 5.323,5.323 8.315,12.545 8.315,20.074 0,7.53 -2.992,14.751 -8.315,20.075 -7.681,7.68 -16.438,16.437 -24.118,24.117 -5.323,5.324 -12.545,8.316 -20.074,8.316 -7.53,0 -14.751,-2.992 -20.075,-8.316 -0.005,-0.005 -0.012,-0.012 -0.018,-0.017 -5.323,-5.324 -8.315,-12.545 -8.315,-20.075 0,-7.529 2.992,-14.751 8.315,-20.074 C -16.437,16.437 -7.681,7.681 0,0 Z"
             style="fill:none;stroke:#000000;stroke-width:30;stroke-linecap:round;stroke-linejoin:round;stroke-miterlimit:10;stroke-dasharray:none;stroke-opacity:1"
             id="path1277" /></g><g
           id="g1279"
           transform="translate(171.6592,324.2744)"><path
             d="m 0,0 c 11.087,-11.087 29.062,-11.087 40.148,0 0.006,0.006 0.013,0.012 0.018,0.018 11.087,11.086 11.087,29.062 0,40.149 -12.271,12.271 -27.912,27.913 -40.184,40.184 -11.086,11.087 -29.062,11.087 -40.149,0 -0.006,-0.005 -0.012,-0.012 -0.018,-0.018 -11.086,-11.086 -11.086,-29.062 0,-40.148 C -27.913,27.913 -12.272,12.272 0,0 Z"
             style="fill:none;stroke:#000000;stroke-width:30;stroke-linecap:round;stroke-linejoin:round;stroke-miterlimit:10;stroke-dasharray:none;stroke-opacity:1"
             id="path1281" /></g><g
           id="g1283"
           transform="translate(211.8252,364.4414)"><path
             d="m 0,0 c 5.324,-5.324 12.545,-8.315 20.075,-8.315 7.529,0 14.75,2.991 20.074,8.315 0.006,0.005 0.012,0.012 0.018,0.018 5.323,5.323 8.315,12.545 8.315,20.074 0,7.53 -2.992,14.751 -8.315,20.075 -14.426,14.425 -33.792,33.791 -48.218,48.217 -5.323,5.324 -12.545,8.315 -20.074,8.315 -7.53,0 -14.751,-2.991 -20.074,-8.315 -0.006,-0.006 -0.013,-0.012 -0.019,-0.018 -5.323,-5.323 -8.314,-12.544 -8.314,-20.074 0,-7.53 2.991,-14.751 8.314,-20.075 C -33.792,33.792 -14.425,14.425 0,0 Z"
             style="fill:none;stroke:#000000;stroke-width:30;stroke-linecap:round;stroke-linejoin:round;stroke-miterlimit:10;stroke-dasharray:none;stroke-opacity:1"
             id="path1285" /></g><g
           id="g1287"
           transform="translate(272.0664,127.4668)"><path
             d="M 0,0 96.4,-96.4"
             style="fill:none;stroke:#000000;stroke-width:30;stroke-linecap:round;stroke-linejoin:round;stroke-miterlimit:10;stroke-dasharray:none;stroke-opacity:1"
             id="path1289" /></g><g
           id="g1291"
           transform="translate(416.667,239.9331)"><path
             d="M 0,0 80.333,-80.333"
             style="fill:none;stroke:#000000;stroke-width:30;stroke-linecap:round;stroke-linejoin:round;stroke-miterlimit:10;stroke-dasharray:none;stroke-opacity:1"
             id="path1293" /></g><g
           id="g1295"
           transform="translate(95.333,239.9331)"><path
             d="M 0,0 -80.333,-80.333"
             style="fill:none;stroke:#000000;stroke-width:30;stroke-linecap:round;stroke-linejoin:round;stroke-miterlimit:10;stroke-dasharray:none;stroke-opacity:1"
             id="path1297" /></g><g
           id="g1299"
           transform="translate(207.7998,448.7998)"><path
             d="M 0,0 64.267,32.133 96.4,0"
             style="fill:none;stroke:#000000;stroke-width:30;stroke-linecap:round;stroke-linejoin:round;stroke-miterlimit:10;stroke-dasharray:none;stroke-opacity:1"
             id="path1301" /></g></g></g></g></svg>
