<svg id="Capa_1" enable-background="new 0 0 512 512" height="512" viewBox="0 0 512 512" width="512" xmlns="http://www.w3.org/2000/svg"><g><g><g><path d="m510.173 180.77-53.6 98.448c-2.83 5.22-8.48 8.261-14.4 7.781-5.92-.49-10.99-4.42-12.94-10.031l-8.26-23.762c-11.1 7.081-25.03 17.511-38.67 31.953-11.97 12.671-29.38 34.843-45 60.255l.13-158.883c18.75-15.231 36.57-26.012 51.31-33.493l-8.82-27.872c-1.83-5.781 0-12.091 4.63-16.001 4.63-3.9 11.15-4.64 16.54-1.86l102.78 52.964c3.59 1.85 6.28 5.06 7.47 8.921 1.18 3.859.76 8.04-1.17 11.58z"/></g></g><path d="m331.992 111.964h-24.5l-.18 215.958c-18.932-52.992-48.357-101.187-85.38-138.711-5.66-5.77-11.48-11.311-17.44-16.601v-60.645h-24.5c-12.69.42-19.95-16.161-11-25.202l76-82.007c5.63-6.34 16.37-6.34 22 0l76 82.007c8.95 9.03 1.7 25.621-11 25.201z"/><path d="m275.125 327.532c-17.107-43.666-41.951-84.044-74.601-117.3-27.871-28.442-55.831-46.314-77.281-57.195l8.82-27.872c4.315-12.211-9.856-24.181-21.17-17.861l-102.772 52.964c-7.358 3.597-10.361 13.396-6.3 20.502l53.591 98.448c5.666 11.3 23.595 9.814 27.34-2.25l8.26-23.762c11.1 7.081 25.02 17.511 38.66 31.953 45.464 48.154 66.719 115.522 73.551 184.015.86 8.751 1.27 17.852 1.27 27.822 0 8.281 6.72 15.001 15 15.001h72.691c8.219.173 15.416-7.236 14.99-15.451-1.899-62.705-12.679-119.56-32.049-169.014z"/></g></svg>